{
  "accessors": [
    {
      "bufferView": 1,
      "componentType": 5126,
      "count": 527,
      "max": [
        46.861019134521484,
        1.171090006828308,
        8.11417007446289
      ],
      "min": [
        -10.544363975524902,
        -1.5967600345611572,
        -0.9862732887268066
      ],
      "type": "VEC3"
    },
    {
      "bufferView": 1,
      "byteOffset": 6324,
      "componentType": 5126,
      "count": 527,
      "max": [
        1.0000050067901611,
        1.0,
        1.0
      ],
      "min": [
        -1.0000050067901611,
        -1.0,
        -1.0
      ],
      "type": "VEC3"
    },
    {
      "bufferView": 0,
      "componentType": 5125,
      "count": 960,
      "type": "SCALAR"
    },
    {
      "bufferView": 1,
      "byteOffset": 12648,
      "componentType": 5126,
      "count": 90,
      "max": [
        -0.5110141634941101,
        0.676069974899292,
        2.607743740081787
      ],
      "min": [
        -0.8052406311035156,
        -0.6584100127220154,
        0.5519020557403564
      ],
      "type": "VEC3"
    },
    {
      "bufferView": 1,
      "byteOffset": 13728,
      "componentType": 5126,
      "count": 90,
      "max": [
        0.14298386871814728,
        0.9997593760490417,
        0.8374162912368774
      ],
      "min": [
        -0.9995207786560059,
        -0.9997593760490417,
        -0.8374162912368774
      ],
      "type": "VEC3"
    },
    {
      "bufferView": 0,
      "byteOffset": 3840,
      "componentType": 5125,
      "count": 144,
      "type": "SCALAR"
    },
    {
      "bufferView": 1,
      "byteOffset": 14808,
      "componentType": 5126,
      "count": 334,
      "max": [
        4.727065086364746,
        0.657010018825531,
        2.750624895095825
      ],
      "min": [
        2.9807233810424805,
        -0.632070004940033,
        0.951165497303009
      ],
      "type": "VEC3"
    },
    {
      "bufferView": 1,
      "byteOffset": 18816,
      "componentType": 5126,
      "count": 334,
      "max": [
        0.999521017074585,
        0.9999805688858032,
        0.8402230143547058
      ],
      "min": [
        -0.11401420086622238,
        -0.9999876022338867,
        -0.8365544676780701
      ],
      "type": "VEC3"
    },
    {
      "bufferView": 0,
      "byteOffset": 4416,
      "componentType": 5125,
      "count": 468,
      "type": "SCALAR"
    },
    {
      "bufferView": 1,
      "byteOffset": 22824,
      "componentType": 5126,
      "count": 783,
      "max": [
        3.1539456844329834,
        0.9053000211715698,
        2.910414457321167
      ],
      "min": [
        -0.8106598258018494,
        -0.8871200084686279,
        0.2527144253253937
      ],
      "type": "VEC3"
    },
    {
      "bufferView": 1,
      "byteOffset": 32220,
      "componentType": 5126,
      "count": 783,
      "max": [
        0.9995207786560059,
        0.9999903440475464,
        0.8390630483627319
      ],
      "min": [
        -0.9995207786560059,
        -0.9999809265136719,
        -0.8374162912368774
      ],
      "type": "VEC3"
    },
    {
      "bufferView": 0,
      "byteOffset": 6288,
      "componentType": 5125,
      "count": 1296,
      "type": "SCALAR"
    },
    {
      "bufferView": 1,
      "byteOffset": 41616,
      "componentType": 5126,
      "count": 854,
      "max": [
        46.75748062133789,
        1.4438600540161133,
        8.50905990600586
      ],
      "min": [
        -22.588499069213867,
        -1.4438600540161133,
        -4.0916547775268555
      ],
      "type": "VEC3"
    },
    {
      "bufferView": 1,
      "byteOffset": 51864,
      "componentType": 5126,
      "count": 854,
      "max": [
        1.0,
        1.0000001192092896,
        1.0
      ],
      "min": [
        -1.0,
        -1.0000001192092896,
        -1.0
      ],
      "type": "VEC3"
    },
    {
      "bufferView": 0,
      "byteOffset": 11472,
      "componentType": 5125,
      "count": 1428,
      "type": "SCALAR"
    },
    {
      "bufferView": 1,
      "byteOffset": 62112,
      "componentType": 5126,
      "count": 1016,
      "max": [
        13.075944900512695,
        1.396090030670166,
        7.349259853363037
      ],
      "min": [
        -16.152280807495117,
        -2.094510078430176,
        -17.19981575012207
      ],
      "type": "VEC3"
    },
    {
      "bufferView": 1,
      "byteOffset": 74304,
      "componentType": 5126,
      "count": 1016,
      "max": [
        1.0,
        1.0,
        0.9999114871025085
      ],
      "min": [
        -1.0,
        -1.0,
        -1.0
      ],
      "type": "VEC3"
    },
    {
      "bufferView": 0,
      "byteOffset": 17184,
      "componentType": 5125,
      "count": 2136,
      "type": "SCALAR"
    },
    {
      "bufferView": 1,
      "byteOffset": 86496,
      "componentType": 5126,
      "count": 466,
      "max": [
        32.17097854614258,
        1.5220400094985962,
        6.906030178070068
      ],
      "min": [
        -22.156879425048828,
        -4.146299839019775,
        1.9503599405288696
      ],
      "type": "VEC3"
    },
    {
      "bufferView": 1,
      "byteOffset": 92088,
      "componentType": 5126,
      "count": 466,
      "max": [
        1.0,
        1.0,
        1.0
      ],
      "min": [
        -1.0,
        -1.0,
        -1.0
      ],
      "type": "VEC3"
    },
    {
      "bufferView": 0,
      "byteOffset": 25728,
      "componentType": 5125,
      "count": 816,
      "type": "SCALAR"
    },
    {
      "bufferView": 1,
      "byteOffset": 97680,
      "componentType": 5126,
      "count": 2224,
      "max": [
        47.16857147216797,
        1.3749799728393555,
        8.753729820251465
      ],
      "min": [
        -40.6746711730957,
        -1.3749799728393555,
        -17.362504959106445
      ],
      "type": "VEC3"
    },
    {
      "bufferView": 1,
      "byteOffset": 124368,
      "componentType": 5126,
      "count": 2224,
      "max": [
        1.0,
        1.0,
        1.0
      ],
      "min": [
        -1.0,
        -1.0,
        -1.0
      ],
      "type": "VEC3"
    },
    {
      "bufferView": 0,
      "byteOffset": 28992,
      "componentType": 5125,
      "count": 4686,
      "type": "SCALAR"
    },
    {
      "bufferView": 1,
      "byteOffset": 151056,
      "componentType": 5126,
      "count": 592,
      "max": [
        48.56380844116211,
        1.3824299573898315,
        8.311039924621582
      ],
      "min": [
        -16.2042293548584,
        -1.6557999849319458,
        -2.3742198944091797
      ],
      "type": "VEC3"
    },
    {
      "bufferView": 1,
      "byteOffset": 158160,
      "componentType": 5126,
      "count": 592,
      "max": [
        1.0000050067901611,
        1.0,
        1.0
      ],
      "min": [
        -1.0000050067901611,
        -1.0,
        -1.0
      ],
      "type": "VEC3"
    },
    {
      "bufferView": 0,
      "byteOffset": 47736,
      "componentType": 5125,
      "count": 1056,
      "type": "SCALAR"
    },
    {
      "bufferView": 1,
      "byteOffset": 165264,
      "componentType": 5126,
      "count": 754,
      "max": [
        47.30231857299805,
        0.9196000099182129,
        7.21681022644043
      ],
      "min": [
        -16.161239624023438,
        -0.9196000099182129,
        2.457740068435669
      ],
      "type": "VEC3"
    },
    {
      "bufferView": 1,
      "byteOffset": 174312,
      "componentType": 5126,
      "count": 754,
      "max": [
        1.0,
        1.0,
        1.0
      ],
      "min": [
        -1.0,
        -1.0,
        -1.0
      ],
      "type": "VEC3"
    },
    {
      "bufferView": 0,
      "byteOffset": 51960,
      "componentType": 5125,
      "count": 1260,
      "type": "SCALAR"
    },
    {
      "bufferView": 1,
      "byteOffset": 183360,
      "componentType": 5126,
      "count": 1253,
      "max": [
        26.25408935546875,
        1.4860600233078003,
        7.932290077209473
      ],
      "min": [
        -40.104278564453125,
        -1.4860600233078003,
        -10.997550010681152
      ],
      "type": "VEC3"
    },
    {
      "bufferView": 1,
      "byteOffset": 198396,
      "componentType": 5126,
      "count": 1253,
      "max": [
        1.0,
        1.0,
        1.0
      ],
      "min": [
        -1.0,
        -1.0,
        -1.0
      ],
      "type": "VEC3"
    },
    {
      "bufferView": 0,
      "byteOffset": 57000,
      "componentType": 5125,
      "count": 2226,
      "type": "SCALAR"
    },
    {
      "bufferView": 2,
      "componentType": 5126,
      "count": 1,
      "max": [
        1.0,
        0.0,
        0.0,
        0.0,
        0.0,
        1.0,
        0.0,
        0.0,
        0.0,
        0.0,
        1.0,
        0.0,
        0.0,
        0.0,
        0.0,
        1.0
      ],
      "min": [
        1.0,
        0.0,
        0.0,
        0.0,
        0.0,
        1.0,
        0.0,
        0.0,
        0.0,
        0.0,
        1.0,
        0.0,
        0.0,
        0.0,
        0.0,
        1.0
      ],
      "type": "MAT4"
    }
  ],
  "asset": {
    "extras": {
      "author": "TastyTony (https://sketchfab.com/TastyTony)",
      "license": "CC-BY-4.0 (http://creativecommons.org/licenses/by/4.0/)",
      "source": "https://sketchfab.com/3d-models/low-poly-ak-47-type-2-a7260926fb0a40f8bba5f651b03d23f1",
      "title": "Low-Poly AK-47 Type 2"
    },
    "generator": "Sketchfab-15.10.0",
    "version": "2.0"
  },
  "bufferViews": [
    {
      "buffer": 0,
      "byteLength": 65904,
      "name": "floatBufferViews",
      "target": 34963
    },
    {
      "buffer": 0,
      "byteLength": 213432,
      "byteOffset": 65904,
      "byteStride": 12,
      "name": "floatBufferViews",
      "target": 34962
    },
    {
      "buffer": 0,
      "byteLength": 64,
      "byteOffset": 279336,
      "name": "floatBufferViews"
    }
  ],
  "buffers": [
    {
      "byteLength": 279400,
      "uri": "scene.bin"
    }
  ],
  "extensionsRequired": [
    "KHR_materials_pbrSpecularGlossiness"
  ],
  "extensionsUsed": [
    "KHR_materials_pbrSpecularGlossiness"
  ],
  "materials": [
    {
      "doubleSided": true,
      "extensions": {
        "KHR_materials_pbrSpecularGlossiness": {
          "diffuseFactor": [
            0.07282843555228292,
            0.07282843555228292,
            0.07282843555228292,
            1.0
          ],
          "glossinessFactor": 0.0,
          "specularFactor": [
            0.0,
            0.0,
            0.0
          ]
        }
      },
      "name": "Material.003"
    },
    {
      "doubleSided": true,
      "extensions": {
        "KHR_materials_pbrSpecularGlossiness": {
          "diffuseFactor": [
            1.0,
            1.0,
            1.0,
            1.0
          ],
          "glossinessFactor": 1.0,
          "specularFactor": [
            1.0,
            1.0,
            1.0
          ]
        }
      },
      "name": "Material.010"
    },
    {
      "doubleSided": true,
      "extensions": {
        "KHR_materials_pbrSpecularGlossiness": {
          "diffuseFactor": [
            0.1328683216,
            0.086500462,
            0.0648032667,
            1.0
          ],
          "glossinessFactor": 0.0,
          "specularFactor": [
            0.0,
            0.0,
            0.0
          ]
        }
      },
      "name": "Material.009"
    },
    {
      "doubleSided": true,
      "extensions": {
        "KHR_materials_pbrSpecularGlossiness": {
          "diffuseFactor": [
            0.0578846757073526,
            0.0578846757073526,
            0.0578846757073526,
            1.0
          ],
          "glossinessFactor": 0.0,
          "specularFactor": [
            0.0,
            0.0,
            0.0
          ]
        }
      },
      "name": "Material.008"
    },
    {
      "doubleSided": true,
      "extensions": {
        "KHR_materials_pbrSpecularGlossiness": {
          "diffuseFactor": [
            0.0758955803843573,
            0.06924449864741179,
            0.06924449864741179,
            1.0
          ],
          "glossinessFactor": 0.0,
          "specularFactor": [
            0.0,
            0.0,
            0.0
          ]
        }
      },
      "name": "Material.004"
    },
    {
      "doubleSided": true,
      "extensions": {
        "KHR_materials_pbrSpecularGlossiness": {
          "diffuseFactor": [
            0.05148971592943403,
            0.0494639847812606,
            0.0494639847812606,
            1.0
          ],
          "glossinessFactor": 0.0,
          "specularFactor": [
            0.0,
            0.0,
            0.0
          ]
        }
      },
      "name": "Material.002"
    },
    {
      "doubleSided": true,
      "extensions": {
        "KHR_materials_pbrSpecularGlossiness": {
          "diffuseFactor": [
            0.09338070528334956,
            0.09338070528334956,
            0.09338070528334956,
            1.0
          ],
          "glossinessFactor": 0.0,
          "specularFactor": [
            0.0,
            0.0,
            0.0
          ]
        }
      },
      "name": "Material.006"
    },
    {
      "doubleSided": true,
      "extensions": {
        "KHR_materials_pbrSpecularGlossiness": {
          "diffuseFactor": [
            0.048196686848504366,
            0.04776509559407324,
            0.04776509559407324,
            1.0
          ],
          "glossinessFactor": 0.0,
          "specularFactor": [
            0.0,
            0.0,
            0.0
          ]
        }
      },
      "name": "Material.001"
    },
    {
      "doubleSided": true,
      "extensions": {
        "KHR_materials_pbrSpecularGlossiness": {
          "diffuseFactor": [
            0.08098323170731707,
            0.07936246415880041,
            0.07936246415880041,
            1.0
          ],
          "glossinessFactor": 1.0,
          "specularFactor": [
            0.0,
            0.0,
            0.0
          ]
        }
      },
      "name": "Material.007"
    },
    {
      "doubleSided": true,
      "extensions": {
        "KHR_materials_pbrSpecularGlossiness": {
          "diffuseFactor": [
            0.04636545505720551,
            0.04636545505720551,
            0.04636545505720551,
            1.0
          ],
          "glossinessFactor": 0.0,
          "specularFactor": [
            0.0,
            0.0,
            0.0
          ]
        }
      },
      "name": "Material.005"
    },
    {
      "doubleSided": true,
      "extensions": {
        "KHR_materials_pbrSpecularGlossiness": {
          "diffuseFactor": [
            0.09001585088471749,
            0.06297142789250917,
            0.049561501708755416,
            1.0
          ],
          "glossinessFactor": 0.0,
          "specularFactor": [
            0.0,
            0.0,
            0.0
          ]
        }
      },
      "name": "Material"
    }
  ],
  "meshes": [
    {
      "name": "Cube.015_0",
      "primitives": [
        {
          "attributes": {
            "NORMAL": 1,
            "POSITION": 0
          },
          "indices": 2,
          "material": 0,
          "mode": 4
        }
      ]
    },
    {
      "name": "Cube.015_1",
      "primitives": [
        {
          "attributes": {
            "NORMAL": 4,
            "POSITION": 3
          },
          "indices": 5,
          "material": 1,
          "mode": 4
        }
      ]
    },
    {
      "name": "Cube.015_2",
      "primitives": [
        {
          "attributes": {
            "NORMAL": 7,
            "POSITION": 6
          },
          "indices": 8,
          "material": 2,
          "mode": 4
        }
      ]
    },
    {
      "name": "Cube.015_3",
      "primitives": [
        {
          "attributes": {
            "NORMAL": 10,
            "POSITION": 9
          },
          "indices": 11,
          "material": 3,
          "mode": 4
        }
      ]
    },
    {
      "name": "Cube.015_4",
      "primitives": [
        {
          "attributes": {
            "NORMAL": 13,
            "POSITION": 12
          },
          "indices": 14,
          "material": 4,
          "mode": 4
        }
      ]
    },
    {
      "name": "Cube.015_5",
      "primitives": [
        {
          "attributes": {
            "NORMAL": 16,
            "POSITION": 15
          },
          "indices": 17,
          "material": 5,
          "mode": 4
        }
      ]
    },
    {
      "name": "Cube.015_6",
      "primitives": [
        {
          "attributes": {
            "NORMAL": 19,
            "POSITION": 18
          },
          "indices": 20,
          "material": 6,
          "mode": 4
        }
      ]
    },
    {
      "name": "Cube.015_7",
      "primitives": [
        {
          "attributes": {
            "NORMAL": 22,
            "POSITION": 21
          },
          "indices": 23,
          "material": 7,
          "mode": 4
        }
      ]
    },
    {
      "name": "Cube.015_8",
      "primitives": [
        {
          "attributes": {
            "NORMAL": 25,
            "POSITION": 24
          },
          "indices": 26,
          "material": 8,
          "mode": 4
        }
      ]
    },
    {
      "name": "Cube.015_9",
      "primitives": [
        {
          "attributes": {
            "NORMAL": 28,
            "POSITION": 27
          },
          "indices": 29,
          "material": 9,
          "mode": 4
        }
      ]
    },
    {
      "name": "Cube.015_10",
      "primitives": [
        {
          "attributes": {
            "NORMAL": 31,
            "POSITION": 30
          },
          "indices": 32,
          "material": 10,
          "mode": 4
        }
      ]
    }
  ],
  "nodes": [
    {
      "children": [
        1
      ],
      "matrix": [
        0.08962617069482803,
        0.0,
        0.0,
        0.0,
        0.0,
        1.990100766287651e-17,
        -0.08962617069482803,
        0.0,
        0.0,
        0.08962617069482803,
        1.990100766287651e-17,
        0.0,
        0.0,
        0.0,
        0.0,
        1.0
      ],
      "name": "Sketchfab_model"
    },
    {
      "children": [
        2,
        4
      ],
      "name": "Root"
    },
    {
      "children": [
        3
      ],
      "matrix": [
        0.004700000000000001,
        0.42764,
        0.90393,
        0.0,
        -0.99999,
        0.0020100000000000005,
        0.00425,
        0.0,
        0.0,
        -0.9039400000000001,
        0.42765000000000003,
        0.0,
        0.05086000000000001,
        -18.09702,
        9.18733,
        1.0
      ],
      "name": "Lamp"
    },
    {
      "name": "Lamp"
    },
    {
      "children": [
        5,
        6
      ],
      "matrix": [
        0.0,
        0.0,
        -1.0,
        0.0,
        -0.0,
        1.0,
        -0.0,
        0.0,
        1.0,
        0.0,
        0.0,
        0.0,
        1.1600300000000001,
        -0.0,
        0.7592700000000001,
        1.0
      ],
      "name": "Armature"
    },
    {
      "name": "Armature_rootJoint"
    },
    {
      "children": [
        7,
        8,
        9,
        10,
        11,
        12,
        13,
        14,
        15,
        16,
        17
      ],
      "matrix": [
        0.0,
        -0.0,
        0.10975000000000001,
        0.0,
        -0.0,
        0.12555,
        0.0,
        0.0,
        -0.10975000000000001,
        -0.0,
        0.0,
        0.0,
        0.29560000000000003,
        0.0,
        -1.5835,
        1.0
      ],
      "name": "Cube.015"
    },
    {
      "mesh": 0,
      "name": "Cube.015_0"
    },
    {
      "mesh": 1,
      "name": "Cube.015_1"
    },
    {
      "mesh": 2,
      "name": "Cube.015_2"
    },
    {
      "mesh": 3,
      "name": "Cube.015_3"
    },
    {
      "mesh": 4,
      "name": "Cube.015_4"
    },
    {
      "mesh": 5,
      "name": "Cube.015_5"
    },
    {
      "mesh": 6,
      "name": "Cube.015_6"
    },
    {
      "mesh": 7,
      "name": "Cube.015_7"
    },
    {
      "mesh": 8,
      "name": "Cube.015_8"
    },
    {
      "mesh": 9,
      "name": "Cube.015_9"
    },
    {
      "mesh": 10,
      "name": "Cube.015_10"
    }
  ],
  "scene": 0,
  "scenes": [
    {
      "name": "Sketchfab_Scene",
      "nodes": [
        0
      ]
    }
  ],
  "skins": [
    {
      "inverseBindMatrices": 33,
      "joints": [
        5
      ],
      "skeleton": 5
    }
  ]
}
